# xmcd
#
# Track frame offsets:
#	151
#	12103
#	28156
#	41719
#	56733
#	61733
#	75040
#	89269
#	107941
#	123622
#	133254
#
# Disc length: 2003 seconds
#
# Revision: 1
# Processed by: cddbd v1.4PL0 Copyright (c) Steve Scherf et al.
# Submitted via: audiograbber 1.80.04
#
DISCID=8d07d10b
DTITLE=Riccardo Ceres e i Figli della Signora 44 - Puro Stile Italiano
DYEAR=2001
DGENRE=Blues
TTITLE0=Black jack
TTITLE1=Lanimainblues
TTITLE2=Tic e tac
TTITLE3=Romanza
TTITLE4=Hooglydoodly
TTITLE5=Cherie a Paris
TTITLE6=L'elefante
TTITLE7=Margarita
TTITLE8=Tailleur
TTITLE9=Lady violet
TTITLE10=Mia moglie
EXTD=
EXTT0=
EXTT1=
EXTT2=
EXTT3=
EXTT4=
EXTT5=
EXTT6=
EXTT7=
EXTT8=
EXTT9=
EXTT10=
PLAYORDER=
